<svg width="734" height="553" viewBox="0 0 734 553" fill="none" xmlns="http://www.w3.org/2000/svg">
<rect width="734" height="298.322" rx="9.59234" fill="#F1F6FA"/>
<path d="M314.235 96.1705L252.714 95.9219H252.66C250.747 95.9193 248.853 96.2938 247.085 97.024C245.317 97.7542 243.711 98.8257 242.357 100.177C241.004 101.529 239.93 103.134 239.198 104.901C238.465 106.668 238.088 108.562 238.088 110.474V187.849C238.087 189.76 238.463 191.652 239.194 193.417C239.925 195.182 240.996 196.786 242.347 198.137C243.698 199.488 245.302 200.56 247.068 201.291C248.833 202.022 250.725 202.397 252.636 202.397H252.714L314.264 202.202V198.492C314.267 180.208 307.342 162.601 294.885 149.218C307.382 135.834 314.302 118.187 314.235 99.8757V96.1705ZM267.091 130.102C259.598 127.05 253.616 126.485 245.532 126.075V125.939C251.166 125.088 256.373 122.435 260.373 118.377C264.373 114.32 266.95 109.075 267.72 103.43L281.185 103.488C280.283 114.248 275.247 123.023 267.091 130.102ZM247.629 105.443C248.286 104.781 249.068 104.258 249.93 103.903C250.791 103.547 251.714 103.365 252.645 103.366L258.803 103.43C258.803 106.282 257.262 109.836 254.659 112.493C252.056 115.15 248.511 116.637 245.601 116.637L245.532 110.45C245.533 109.518 245.718 108.596 246.078 107.736C246.438 106.877 246.965 106.097 247.629 105.443ZM245.532 172.492V159.1C255.249 160.021 263.317 162.542 270.196 169.46C277.075 176.378 280.269 185.061 281.137 194.811L267.71 194.845C266.913 189.23 264.324 184.021 260.328 179.996C256.331 175.971 251.142 173.344 245.532 172.507V172.492ZM252.714 194.957C250.829 194.957 249.021 194.208 247.687 192.875C246.354 191.542 245.606 189.734 245.606 187.849V181.892C248.448 181.892 252.065 183.388 254.664 186.031C257.262 188.673 258.808 192.247 258.808 194.84L252.714 194.957ZM305.152 194.796L290.712 194.84C289.816 183.145 284.771 172.154 276.488 163.85C268.204 155.546 257.226 150.474 245.532 149.549L245.601 134.782C261.523 135.757 274.462 141.608 285.734 152.908C297.006 164.209 304.221 178.888 305.147 194.835L305.152 194.796ZM287.816 142.529C283.745 138.96 281.039 137.361 276.291 134.763C284.717 126.441 289.826 115.336 290.663 103.522L304.392 103.488C303.582 118.553 298.088 131.472 287.816 142.529Z" fill="#2376F3"/>
<path d="M338.836 177.05H350.025V165.603L355.709 159.406L366.123 177.05H378.774L363.714 151.83L378.433 134.957H365.177L350.2 152.605H350.025V120.492H338.836V177.05Z" fill="#3E4B5B"/>
<path d="M399.244 177.819C412.329 177.819 421.538 168.868 421.538 156.041C421.538 143.127 412.329 134.352 399.244 134.352C385.817 134.352 376.861 143.473 376.861 156.041C376.861 168.61 385.807 177.819 399.244 177.819ZM399.244 167.659C392.789 167.659 388.313 162.584 388.313 156.041C388.313 149.411 392.701 144.419 399.244 144.419C405.44 144.419 410.091 149.153 410.091 156.041C410.091 162.93 405.27 167.659 399.244 167.659Z" fill="#3E4B5B"/>
<path d="M426.938 177.049H438.214V157.597C438.214 151.225 441.919 146.579 448.891 146.579C449.578 146.579 450.7 146.579 451.904 146.662V134.352H451.041C446.136 134.352 441.573 136.789 438.39 141.07H438.214V134.956H426.938V177.049Z" fill="#3E4B5B"/>
<path d="M472.33 177.823C477.839 177.823 482.056 175.756 484.982 171.973L485.152 172.061V177.053H495.912V134.955H484.636V139.796L484.465 139.884C481.452 136.267 476.976 134.375 472.072 134.375C460.795 134.375 452.273 143.409 452.273 156.153C452.273 169.15 460.795 177.843 472.33 177.843V177.823ZM474.48 167.683C468.108 167.683 463.721 162.949 463.721 156.236C463.721 149.006 468.372 144.442 474.48 144.442C480.506 144.442 485.152 149.435 485.152 156.236C485.152 163.124 480.248 167.683 474.48 167.683Z" fill="#3E4B5B"/>
<rect x="1.5" y="315.82" width="731" height="235" rx="6.15273" fill="white"/>
<path d="M324.904 391.046L275.823 390.848H275.78C274.254 390.846 272.743 391.144 271.332 391.727C269.922 392.309 268.64 393.164 267.56 394.243C266.481 395.321 265.624 396.601 265.04 398.011C264.455 399.421 264.154 400.932 264.154 402.458V464.187C264.154 465.711 264.454 467.221 265.037 468.629C265.62 470.037 266.475 471.317 267.553 472.395C268.63 473.473 269.91 474.327 271.318 474.911C272.727 475.494 274.236 475.794 275.76 475.793H275.823L324.927 475.637V472.678C324.93 458.091 319.405 444.044 309.467 433.367C319.436 422.689 324.958 408.61 324.904 394.002V391.046ZM287.293 418.117C281.315 415.682 276.542 415.231 270.094 414.904V414.795C274.588 414.116 278.742 412 281.933 408.763C285.124 405.525 287.181 401.341 287.795 396.837L298.537 396.884C297.818 405.468 293.8 412.469 287.293 418.117ZM271.766 398.444C272.29 397.916 272.914 397.498 273.602 397.215C274.289 396.931 275.025 396.786 275.768 396.787L280.681 396.837C280.681 399.113 279.452 401.948 277.375 404.068C275.298 406.188 272.47 407.374 270.148 407.374L270.094 402.438C270.094 401.695 270.242 400.959 270.529 400.273C270.816 399.587 271.236 398.965 271.766 398.444ZM270.094 451.935V441.251C277.845 441.986 284.282 443.997 289.77 449.516C295.258 455.035 297.806 461.962 298.498 469.741L287.787 469.768C287.151 465.288 285.085 461.133 281.897 457.922C278.709 454.711 274.569 452.615 270.094 451.947V451.935ZM275.823 469.858C274.319 469.858 272.876 469.26 271.813 468.197C270.749 467.133 270.152 465.691 270.152 464.187V459.434C272.419 459.434 275.305 460.628 277.379 462.736C279.452 464.844 280.685 467.695 280.685 469.764L275.823 469.858ZM317.658 469.729L306.137 469.764C305.423 460.434 301.398 451.666 294.789 445.04C288.181 438.415 279.422 434.369 270.094 433.631L270.148 421.85C282.851 422.628 293.174 427.296 302.166 436.311C311.159 445.327 316.915 457.038 317.654 469.76L317.658 469.729ZM303.827 428.031C300.579 425.184 298.421 423.908 294.632 421.835C301.355 415.195 305.431 406.336 306.098 396.911L317.051 396.884C316.406 408.902 312.022 419.209 303.827 428.031Z" fill="#3E4B5B"/>
<path d="M344.531 455.571H353.458V446.438L357.993 441.495L366.301 455.571H376.394L364.379 435.451L376.122 421.989H365.546L353.598 436.069H353.458V410.449H344.531V455.571Z" fill="#3E4B5B"/>
<path d="M392.724 456.182C403.163 456.182 410.51 449.041 410.51 438.808C410.51 428.505 403.163 421.504 392.724 421.504C382.012 421.504 374.867 428.781 374.867 438.808C374.867 448.835 382.004 456.182 392.724 456.182ZM392.724 448.077C387.574 448.077 384.004 444.028 384.004 438.808C384.004 433.518 387.504 429.536 392.724 429.536C397.667 429.536 401.378 433.312 401.378 438.808C401.378 444.304 397.531 448.077 392.724 448.077Z" fill="#3E4B5B"/>
<path d="M414.818 455.568H423.815V440.049C423.815 434.965 426.771 431.259 432.333 431.259C432.881 431.259 433.776 431.259 434.736 431.325V421.504H434.048C430.135 421.504 426.495 423.449 423.955 426.864H423.815V421.986H414.818V455.568Z" fill="#3E4B5B"/>
<path d="M451.031 456.19C455.426 456.19 458.79 454.541 461.124 451.523L461.26 451.593V455.575H469.844V421.99H460.848V425.852L460.712 425.922C458.308 423.036 454.737 421.527 450.824 421.527C441.828 421.527 435.029 428.734 435.029 438.901C435.029 449.271 441.828 456.206 451.031 456.206V456.19ZM452.746 448.1C447.662 448.1 444.162 444.323 444.162 438.968C444.162 433.2 447.872 429.559 452.746 429.559C457.553 429.559 461.26 433.542 461.26 438.968C461.26 444.463 457.347 448.1 452.746 448.1Z" fill="#3E4B5B"/>
<rect x="1.5" y="315.82" width="731" height="235" rx="6.15273" stroke="#F1F6FA" stroke-width="3"/>
</svg>
